<svg width="30" height="30" viewBox="0 0 30 30" fill="none" xmlns="http://www.w3.org/2000/svg">
<path fill-rule="evenodd" clip-rule="evenodd" d="M3.82606 10.3885C3.82606 7.63331 5.00332 4.99095 7.09885 3.04273C9.19438 1.0945 12.0365 0 15.0001 0C17.9636 0 20.8057 1.0945 22.9013 3.04273C24.9968 4.99095 26.1741 7.63331 26.1741 10.3885V11.5428C26.1741 14.8102 27.4984 17.7867 29.6802 20.0383C29.8161 20.1783 29.9131 20.3472 29.9625 20.5301C30.012 20.713 30.0125 20.9044 29.964 21.0876C29.9155 21.2707 29.8194 21.44 29.6842 21.5807C29.5491 21.7213 29.3789 21.829 29.1886 21.8944C26.6326 22.7716 23.9575 23.418 21.1913 23.8074C21.2536 24.5987 21.1397 25.3934 20.8568 26.1419C20.5739 26.8905 20.128 27.5767 19.547 28.1579C18.966 28.739 18.2623 29.2025 17.48 29.5195C16.6977 29.8364 15.8535 30 15.0001 30C14.1467 30 13.3024 29.8364 12.5201 29.5195C11.7378 29.2025 11.0341 28.739 10.4531 28.1579C9.87214 27.5767 9.42626 26.8905 9.14335 26.1419C8.86043 25.3934 8.74656 24.5987 8.80884 23.8074C6.08015 23.423 3.4006 22.7815 0.811567 21.8928C0.621416 21.8276 0.451345 21.72 0.316205 21.5796C0.181066 21.4391 0.0849699 21.27 0.0363088 21.0871C-0.0123523 20.9042 -0.012098 20.7129 0.0370496 20.5301C0.0861973 20.3473 0.182743 20.1784 0.318256 20.0383C2.58088 17.7092 3.83116 14.6812 3.82606 11.5428V10.3885ZM11.2787 24.086C11.2575 24.5526 11.3381 25.0184 11.5156 25.4553C11.693 25.8922 11.9637 26.2912 12.3114 26.6284C12.659 26.9655 13.0764 27.2338 13.5385 27.417C14.0006 27.6003 14.4977 27.6948 15.0001 27.6948C15.5024 27.6948 15.9996 27.6003 16.4616 27.417C16.9237 27.2338 17.3411 26.9655 17.6887 26.6284C18.0364 26.2912 18.3071 25.8922 18.4846 25.4553C18.662 25.0184 18.7426 24.5526 18.7214 24.086C16.2455 24.2933 13.7546 24.2933 11.2787 24.086Z" fill="#89C73E"/>
</svg>
