<svg width="40" height="41" viewBox="0 0 40 41" fill="none" xmlns="http://www.w3.org/2000/svg">
<path fill-rule="evenodd" clip-rule="evenodd" d="M18.0095 0.544431C18.2976 0.893482 18.4595 1.36664 18.4595 1.85996C18.4595 2.35329 18.2976 2.82644 18.0095 3.17549L5.25011 18.6144H38.4615C38.8695 18.6144 39.2609 18.8105 39.5494 19.1596C39.8379 19.5087 40 19.9822 40 20.476C40 20.9697 39.8379 21.4432 39.5494 21.7923C39.2609 22.1414 38.8695 22.3376 38.4615 22.3376H5.25011L18.0095 37.7764C18.1607 37.9469 18.2819 38.1524 18.366 38.3807C18.4501 38.6091 18.4953 38.8556 18.4989 39.1056C18.5026 39.3555 18.4646 39.6038 18.3872 39.8356C18.3098 40.0674 18.1947 40.278 18.0486 40.4548C17.9025 40.6315 17.7284 40.7709 17.5369 40.8645C17.3453 40.9581 17.1401 41.0041 16.9335 40.9997C16.727 40.9953 16.5232 40.9406 16.3345 40.8388C16.1458 40.7371 15.9759 40.5904 15.8351 40.4075L0.449944 21.7915C0.16183 21.4424 0 20.9693 0 20.476C0 19.9826 0.16183 19.5095 0.449944 19.1604L15.8351 0.544431C16.1236 0.195815 16.5146 0 16.9223 0C17.33 0 17.721 0.195815 18.0095 0.544431Z" fill="black"/>
</svg>
