<svg width="40" height="40" viewBox="0 0 40 40" fill="none" xmlns="http://www.w3.org/2000/svg">
<path d="M24.7624 28.4695C27.92 28.095 30.9648 27.3526 33.8529 26.2865C31.4582 23.6284 30.0006 20.1094 30.0006 16.25V15.082C30.0009 15.0547 30.001 15.0274 30.001 15C30.001 9.47715 25.5238 5 20.001 5C14.4781 5 10.001 9.47715 10.001 15L10.0006 16.25C10.0006 20.1094 8.5431 23.6284 6.14844 26.2865C9.03665 27.3527 12.0817 28.0951 15.2395 28.4696M24.7624 28.4695C23.2009 28.6547 21.6119 28.75 20.0006 28.75C18.3896 28.75 16.8008 28.6548 15.2395 28.4696M24.7624 28.4695C24.9173 28.9519 25.001 29.4662 25.001 30C25.001 32.7614 22.7624 35 20.001 35C17.2396 35 15.001 32.7614 15.001 30C15.001 29.4662 15.0846 28.9519 15.2395 28.4696" stroke="#89C73E" stroke-width="1.5" stroke-linecap="round" stroke-linejoin="round"/>
</svg>
